# xmcd
#
# Track frame offsets:
#	150
#	12002
#	25949
#	39206
#	50937
#	65693
#	79393
#	92927
#	106537
#	120155
#	131483
#	144350
#	159384
#	173376
#	188210
#	202841
#	215871
#
# Disc length: 3029 seconds
#
# Revision: 0
# Processed by: cddbd v1.5.2PL0 Copyright (c) Steve Scherf et al.
# Submitted via: EasyCDDAExtractor 15.3.0.1
#
DISCID=dc0bd311
DTITLE=Munhoz e Mariano - Ao vivo em Campo Grande Volume II
DYEAR=1900
DGENRE=
TTITLE0=Pantera cor-de-rosa
TTITLE1=Camaro amarelo
TTITLE2=Vai embora, coração
TTITLE3=Casa amarela
TTITLE4=Força estranha
TTITLE5=A bela e o fera
TTITLE6=Grita, amor
TTITLE7=Dois mundos
TTITLE8=Eu vou pegar você e tãe
TTITLE9=Momento errado
TTITLE10=Eu te avisei
TTITLE11=Nuvem negra
TTITLE12=Uma saudade
TTITLE13=Balada louca
TTITLE14=Assume
TTITLE15=Me rendo a você
TTITLE16=Vem cuidar do seu amor
EXTD=
EXTT0=
EXTT1=
EXTT2=
EXTT3=
EXTT4=
EXTT5=
EXTT6=
EXTT7=
EXTT8=
EXTT9=
EXTT10=
EXTT11=
EXTT12=
EXTT13=
EXTT14=
EXTT15=
EXTT16=
PLAYORDER=
